<mxfile host="app.diagrams.net" modified="2021-10-19T16:20:28.821Z" agent="5.0 (Macintosh; Intel Mac OS X 10_15_6) AppleWebKit/605.1.15 (KHTML, like Gecko) Version/14.0.3 Safari/605.1.15" etag="c-Zm_xFC6MEV9hiCbKny" version="15.5.2" type="github">
  <diagram id="tBG_m5PIwWrQo_d5wdXx" name="Page-1">
    <mxGraphModel dx="287" dy="684" grid="1" gridSize="10" guides="1" tooltips="1" connect="1" arrows="1" fold="1" page="1" pageScale="1" pageWidth="827" pageHeight="1169" math="0" shadow="0">
      <root>
        <mxCell id="0" />
        <mxCell id="1" parent="0" />
      </root>
    </mxGraphModel>
  </diagram>
</mxfile>
